<svg width="71" height="71" viewBox="0 0 71 71" fill="none" xmlns="http://www.w3.org/2000/svg"><path d="M28.104 44.375h-17.75a1.48 1.48 0 0 1 0-2.958h17.75a1.48 1.48 0 0 1 0 2.958zm-2.958 8.875H10.354a1.48 1.48 0 0 1 0-2.958h14.792a1.48 1.48 0 0 1 0 2.958zm0-32.542a5.923 5.923 0 0 1-5.916-5.916 5.923 5.923 0 0 1 5.916-5.917 5.923 5.923 0 0 1 5.917 5.917 5.923 5.923 0 0 1-5.917 5.916zm0-8.875a2.963 2.963 0 0 0-2.958 2.959 2.963 2.963 0 0 0 2.958 2.958 2.963 2.963 0 0 0 2.959-2.958 2.963 2.963 0 0 0-2.959-2.959zM35.5 35.5a1.48 1.48 0 0 1-1.48-1.48v-2.957a4.443 4.443 0 0 0-4.437-4.438h-8.875a4.443 4.443 0 0 0-4.437 4.438v2.958a1.48 1.48 0 0 1-2.959 0v-2.958c0-4.077 3.32-7.396 7.396-7.396h8.875c4.077 0 7.396 3.319 7.396 7.396v2.958A1.48 1.48 0 0 1 35.5 35.5z" fill="#AF5844"/><path d="M28.104 62.125H7.396C3.319 62.125 0 58.805 0 54.73V7.396C0 3.319 3.32 0 7.396 0h35.5c4.077 0 7.396 3.32 7.396 7.396v17.927a1.48 1.48 0 0 1-2.959 0V7.396a4.443 4.443 0 0 0-4.437-4.438h-35.5a4.443 4.443 0 0 0-4.438 4.438v47.333a4.443 4.443 0 0 0 4.438 4.438h20.708a1.48 1.48 0 0 1 0 2.958z" fill="#AF5844"/><path d="M51.771 71c-10.602 0-19.229-8.626-19.229-19.229s8.627-19.23 19.23-19.23C62.373 32.542 71 41.169 71 51.772s-8.627 19.23-19.23 19.23zm0-35.5c-8.972 0-16.27 7.298-16.27 16.271s7.298 16.27 16.27 16.27c8.973 0 16.271-7.297 16.271-16.27 0-8.973-7.298-16.27-16.27-16.27z" fill="#AF5844"/><path d="M48.814 59.167c-.39 0-.77-.157-1.048-.432l-5.916-5.917a1.48 1.48 0 0 1 0-2.091 1.48 1.48 0 0 1 2.091 0l4.799 4.798 9.313-10.644a1.475 1.475 0 0 1 2.088-.14 1.48 1.48 0 0 1 .14 2.09L49.925 58.663c-.27.308-.657.491-1.065.503h-.047z" fill="#AF5844"/></svg>