<svg width="60" height="54" viewBox="0 0 60 54" fill="none" xmlns="http://www.w3.org/2000/svg"><path d="M17.787 29.35c2.556 0 4.636-1.905 4.636-4.247 0-.359-.05-.715-.146-1.06-.121-.431-.6-.69-1.07-.58-.47.111-.753.55-.633.98.06.215.091.437.091.66 0 1.454-1.291 2.637-2.878 2.637-1.587 0-2.879-1.183-2.879-2.637 0-1.453 1.292-2.636 2.879-2.636.244 0 .487.028.72.083.47.111.95-.148 1.07-.579.122-.43-.161-.87-.632-.98a5.059 5.059 0 0 0-1.158-.134c-2.557 0-4.637 1.905-4.637 4.246s2.08 4.247 4.637 4.247z" fill="#AF5844"/><path d="M58.178 8.813h-3.594L30.314.263a.954.954 0 0 0-.631 0l-24.27 8.55H1.818C.816 8.813 0 9.56 0 10.478v41.296c0 .918.816 1.665 1.818 1.665h56.36c1.003 0 1.818-.747 1.818-1.666V10.478c0-.918-.815-1.665-1.818-1.665zM1.758 11.56l5.757 5.273v28.584L1.758 50.69V11.56zm55.238-1.138l-5.757 5.272h-36.27c-.486 0-.88.36-.88.805 0 .445.394.805.88.805h35.755v7.192l-.125-.049c-1.777-.697-3.863-.302-5.192.983l-3.086 2.982-8.158 3.443a7.182 7.182 0 0 1-4.801.267l-2.865-.84c-1.795-.527-3.741-.194-5.207.892L11.207 39.64l-.023.018-1.912.613V17.305h1.94c.485 0 .879-.36.879-.805 0-.444-.394-.805-.88-.805H8.758l-5.756-5.272h53.995zM39.068 31.559l-7.081 6.845c-.662.64-1.752.737-2.535.224l-2.993-1.958c-1.225-.801-2.805-1.008-4.226-.552L16.11 38.08l6.284-4.653c1.004-.743 2.337-.972 3.565-.611l2.866.84a9.085 9.085 0 0 0 6.073-.338l4.169-1.76zM8.758 46.556h35.33c.485 0 .879-.36.879-.805 0-.444-.394-.805-.88-.805H9.273v-2.968l13.541-4.34a3.104 3.104 0 0 1 2.624.342l2.993 1.958c1.494.977 3.57.794 4.833-.426l13.42-12.974c.825-.798 2.12-1.043 3.223-.61l.818.32v18.698h-2.879c-.485 0-.879.36-.879.805 0 .445.394.805.88.805h3.393l5.757 5.273H3l5.756-5.273zm43.724-1.138V16.834l5.757-5.273v39.13l-5.757-5.273zM29.998 1.877l19.69 6.936h-39.38l19.69-6.936z" fill="#AF5844"/></svg>