<svg width="43" height="56" viewBox="0 0 43 56" fill="none" xmlns="http://www.w3.org/2000/svg"><path d="M38.891 18.689c-2.318-2.62-5.544-4.47-9.596-5.508V5.268h.293c1.454 0 2.637-1.083 2.637-2.414 0-1.332-1.183-2.415-2.637-2.415H13.183c-1.454 0-2.637 1.083-2.637 2.414 0 1.332 1.183 2.415 2.637 2.415h.293v7.913C9.424 14.218 6.198 16.07 3.88 18.69 1.305 21.597 0 25.299 0 29.69v.17l10.546 21.674v3.853h21.679v-3.853L42.77 29.862v-.171c0-4.392-1.306-8.094-3.88-11.002zM13.183 3.659c-.485 0-.88-.362-.88-.805 0-.444.395-.805.88-.805h16.405c.485 0 .879.36.879.804 0 .444-.394.805-.879.805H13.183zm2.05 3.076V5.268h12.304v1.467H15.233zm12.304 1.61v1.467H15.233V8.345h12.304zm2.93 45.434H12.304v-1.61h18.163v1.61zm.308-3.22h-18.78L6.093 38.427c.04.002.08.004.119.004 1.663 0 2.514-.86 3.198-1.552.647-.654 1.054-1.023 1.898-1.023.843 0 1.25.37 1.897 1.023.684.692 1.536 1.552 3.2 1.552 1.664 0 2.516-.86 3.2-1.552.647-.654 1.054-1.023 1.897-1.023.844 0 1.251.37 1.898 1.023.684.692 1.536 1.552 3.2 1.552 1.664 0 2.515-.86 3.2-1.552.647-.654 1.053-1.023 1.897-1.023.844 0 1.25.37 1.897 1.023.668.675 1.498 1.51 3.085 1.549l-5.903 12.13zM37.52 36.7a2.022 2.022 0 0 1-.726.121c-.843 0-1.25-.37-1.897-1.023-.684-.692-1.536-1.552-3.2-1.552-1.664 0-2.516.86-3.2 1.552-.647.654-1.054 1.023-1.897 1.023-.844 0-1.25-.37-1.898-1.023-.684-.692-1.536-1.552-3.2-1.552-1.664 0-2.515.86-3.2 1.552-.646.654-1.053 1.023-1.897 1.023-.844 0-1.25-.37-1.897-1.023-.685-.692-1.536-1.552-3.2-1.552-1.664 0-2.516.86-3.2 1.552-.647.654-1.054 1.023-1.897 1.023-.278 0-.723-.162-1.055-.32l-2.52-5.178c.07.064.14.132.213.203.71.686 1.593 1.54 3.245 1.54 1.664 0 2.515-.862 3.2-1.553.646-.654 1.053-1.024 1.897-1.024.843 0 1.25.37 1.897 1.024.684.691 1.536 1.552 3.2 1.552 1.664 0 2.515-.86 3.2-1.552.646-.654 1.053-1.024 1.897-1.024.844 0 1.25.37 1.897 1.024.685.691 1.536 1.552 3.2 1.552 1.664 0 2.516-.86 3.2-1.552.647-.654 1.054-1.024 1.898-1.024.843 0 1.25.37 1.897 1.024.685.691 1.537 1.552 3.2 1.552 1.653 0 2.536-.853 3.246-1.539.074-.072.145-.139.214-.204L37.519 36.7zm1.128-6.282c-.686.663-1.115 1.037-1.97 1.037-.844 0-1.251-.37-1.898-1.023-.685-.692-1.536-1.552-3.2-1.552-1.664 0-2.516.86-3.2 1.552-.647.653-1.054 1.023-1.898 1.023-.843 0-1.25-.37-1.897-1.023-.684-.692-1.536-1.552-3.2-1.552-1.664 0-2.515.86-3.2 1.552-.647.653-1.054 1.023-1.897 1.023-.844 0-1.25-.37-1.897-1.023-.685-.692-1.537-1.552-3.2-1.552-1.664 0-2.516.86-3.2 1.552-.647.654-1.053 1.023-1.897 1.023-.855 0-1.284-.374-1.97-1.036-.568-.55-1.25-1.207-2.35-1.446.271-7.46 4.789-12.557 12.795-14.391l.665-.153v-3.008h12.304v3.008l.666.153c8.006 1.834 12.524 6.932 12.795 14.39-1.1.24-1.782.896-2.351 1.447z" fill="#AF5844"/></svg>