<svg width="55" height="56" viewBox="0 0 55 56" fill="none" xmlns="http://www.w3.org/2000/svg"><path d="M52.118 42.447h-1.952c.65-.82 1.006-1.974 1.02-3.389.021-1.98-.625-4.286-1.818-6.496-1.194-2.21-2.804-4.08-4.535-5.266l-.068-.045c.045-.232.072-.472.08-.717a4.133 4.133 0 0 0-.152-1.261c1.169-.15 2.522-.789 3.758-1.854.966-.832 1.7-1.802 2.068-2.732.44-1.115.322-2.078-.33-2.714-.654-.636-1.697-.802-2.938-.468-1.036.279-2.138.891-3.105 1.724-1.15.99-1.903 2.096-2.191 3.099a9 9 0 0 0-.618-.282c-1.858-.765-4.477-1.2-7.785-1.293-1.727-.048-3.236-.006-4.548.13-.292-1.226-.878-2.474-1.712-3.643a11.852 11.852 0 0 0-2.311-2.429c.024-.04.05-.077.074-.118.918-1.542 1.464-3.593 1.537-5.775.073-2.182-.336-4.26-1.15-5.85C24.538 1.3 23.22.303 21.732.262c-2.087-.058-3.962 1.816-4.879 4.894-.128.431.15.876.62.994.47.117.957-.137 1.085-.568.663-2.223 1.896-3.703 3.08-3.703h.04c.776.022 1.565.705 2.164 1.875.699 1.365 1.048 3.181.983 5.114-.064 1.933-.534 3.727-1.322 5.05-.675 1.134-1.505 1.772-2.285 1.75a1.51 1.51 0 0 1-.497-.101.916.916 0 0 0-.084-.028c-.22-1.025-.925-1.949-1.985-2.69-.43-1.227-.632-2.668-.582-4.17.015-.446-.368-.82-.856-.833-.492-.013-.896.337-.91.784a13.872 13.872 0 0 0 .244 3.15c-1.363-.493-2.98-.776-4.733-.776-4.489 0-8.101 1.856-8.78 4.36H1.768v-.395c0-.447-.395-.81-.883-.81S0 14.523 0 14.97v2.407c0 .447.396.81.884.81s.883-.363.883-.81v-.394h1.244c.612 2.55 4.259 4.454 8.804 4.454 2.062 0 3.937-.392 5.43-1.058.312.735.72 1.456 1.216 2.152.949 1.329 2.158 2.448 3.443 3.197a4.39 4.39 0 0 0-.01.164v.016c-.007.457.043.892.15 1.3-.046.03-.092.058-.137.09-1.731 1.185-3.341 3.055-4.535 5.265-1.193 2.21-1.84 4.517-1.819 6.496.015 1.415.37 2.57 1.02 3.39h-3.406c-1.245 0-2.259.927-2.259 2.068v8.625c0 1.14 1.014 2.069 2.26 2.069h38.95c1.246 0 2.259-.929 2.259-2.07v-8.624c0-1.14-1.013-2.069-2.259-2.069zm-4.335-9.167c1.073 1.986 1.654 4.033 1.636 5.763-.015 1.512-.503 2.596-1.337 2.974-.834.378-2.07.075-3.392-.83-1.513-1.037-2.937-2.702-4.01-4.688-2.051-3.798-2.19-7.88-.298-8.738.833-.378 2.07-.075 3.392.831 1.513 1.037 2.937 2.702 4.01 4.688zm-2.426-12.873c.757-.651 1.629-1.143 2.392-1.349.273-.073.497-.102.675-.102.248 0 .405.056.477.126.124.12.187.469-.044 1.054-.27.685-.86 1.452-1.617 2.104-1.614 1.391-3.212 1.649-3.544 1.326-.331-.323.047-1.768 1.661-3.159zM4.687 16.22c0-1.737 2.864-3.597 7.128-3.597s7.129 1.86 7.129 3.597c0 1.737-2.864 3.597-7.129 3.597-4.264 0-7.128-1.86-7.128-3.597zm15.253 5.424a9.6 9.6 0 0 1-1.165-2.141c.886-.649 1.507-1.43 1.78-2.29a3.36 3.36 0 0 0 .706.075c.96 0 1.874-.405 2.672-1.164a10.2 10.2 0 0 1 1.88 2.002c.697.976 1.19 2.008 1.442 3.013a12.5 12.5 0 0 0-1.547.404c-1.842.618-2.828 1.558-3.334 2.517-.898-.613-1.741-1.446-2.434-2.416zm3.721 4.296c.038-.96.178-3.84 9.837-3.57 4.358.123 9.522.917 9.58 3.988-1.268-.485-2.465-.508-3.48-.047-1.315.595-2.073 1.919-2.264 3.637-1.192.117-2.563.157-4.093.114-1.5-.042-2.76-.13-3.843-.268-.219-1.693-1-2.915-2.256-3.484-1.01-.457-2.2-.437-3.462.04a3.68 3.68 0 0 1-.019-.41zm-4.705 7.34c1.073-1.986 2.497-3.65 4.01-4.688.949-.65 1.854-.99 2.598-.99.292 0 .56.053.794.16.835.377 1.322 1.461 1.338 2.973.018 1.73-.563 3.778-1.636 5.764-1.073 1.986-2.497 3.65-4.01 4.688-1.321.906-2.558 1.208-3.392.83-.834-.378-1.322-1.462-1.337-2.974-.018-1.73.563-3.777 1.635-5.763zM52.61 53.14c0 .249-.22.451-.492.451h-38.95c-.272 0-.492-.202-.492-.45v-8.625c0-.248.22-.45.491-.45h18.208c.488 0 .883-.362.883-.81 0-.446-.395-.809-.883-.809h-8.217c1.712-1.187 3.304-3.042 4.486-5.23 1.053-1.95 1.679-3.975 1.798-5.784a43.08 43.08 0 0 0 3.745.247c.424.012.837.017 1.239.017 1.04 0 2.005-.04 2.887-.119.133 1.72.723 3.677 1.783 5.638 1.182 2.189 2.774 4.044 4.486 5.231h-8.673c-.488 0-.883.363-.883.81 0 .447.395.81.883.81h17.209c.271 0 .492.201.492.45v8.624z" fill="#AF5844"/></svg>