<svg width="67" height="68" viewBox="0 0 67 68" fill="none" xmlns="http://www.w3.org/2000/svg"><path d="M33.5 61.881c15.563 0 28.224-12.661 28.224-28.224S49.063 5.431 33.5 5.431 5.276 18.093 5.276 33.656c0 15.564 12.661 28.225 28.224 28.225zm0-53.811c14.108 0 25.587 11.478 25.587 25.587 0 14.108-11.479 25.586-25.587 25.586S7.913 47.765 7.913 33.656C7.913 19.549 19.392 8.07 33.5 8.07zM9.364 10.972a1.319 1.319 0 1 1 2.638 0 1.319 1.319 0 0 1-2.638 0zm47.824 46.373c-13.083 13.082-34.294 13.082-47.376 0C-1.782 45.75-3.101 27.772 5.855 14.725a1.319 1.319 0 0 1 2.176 1.492C-.22 28.237.996 44.8 11.677 55.48c12.053 12.053 31.593 12.053 43.646 0 12.052-12.052 12.052-31.593 0-43.645-10.69-10.691-27.27-11.9-39.293-3.627a1.319 1.319 0 1 1-1.495-2.174c13.05-8.981 31.048-7.67 42.652 3.934 13.083 13.083 13.083 34.294 0 47.377zm-11.797-31.72c0-.729.591-1.32 1.32-1.32h2.211v-2.123a1.319 1.319 0 0 1 2.638 0v2.124h2.035a1.319 1.319 0 0 1 0 2.638H51.56v2.123a1.319 1.319 0 0 1-2.638 0v-2.123H46.71a1.32 1.32 0 0 1-1.319-1.32zm-25.121 0c0-.729.59-1.32 1.319-1.32h3.605c.729 0 1.32.591 1.32 1.32v16.868a1.32 1.32 0 0 1-2.639 0v-15.55H21.59c-.729 0-1.32-.59-1.32-1.318zm16.629 5.703c-.654 0-1.284.102-1.876.29 1.626-3.144 3.809-4.822 3.839-4.845a1.319 1.319 0 0 0 .271-1.845c-.435-.585-1.294-.736-1.845-.271-3.911 3.37-6.586 7.846-6.586 12.868A6.204 6.204 0 0 0 36.9 43.72a6.204 6.204 0 0 0 6.197-6.196 6.203 6.203 0 0 0-6.197-6.197zm0 9.756a3.563 3.563 0 0 1-3.559-3.56 3.563 3.563 0 0 1 3.559-3.558 3.563 3.563 0 0 1 3.559 3.559 3.563 3.563 0 0 1-3.56 3.559z" fill="#AF5844"/><ellipse cx="30.656" cy="33.657" rx="15.486" ry="15.17" fill="#fff"/><path d="M28.706 41.402a.977.977 0 0 0-.962-.962H21.14c1.43-1.17 6.864-5.772 6.864-10.868 0-2.418-1.69-4.758-5.148-4.758-2.574 0-4.082.988-5.278 3.25a.734.734 0 0 0-.104.39c0 .338.208.702.52.858l.702.364c.156.078.338.13.494.13.364 0 .676-.182.884-.52.702-1.04 1.378-1.482 2.444-1.482 1.508 0 2.314.91 2.314 2.366 0 3.25-3.874 7.124-6.864 9.958-.546.52-.884.988-.884 1.586v.546c0 .52.442.962.962.962h9.698c.52 0 .962-.442.962-.962v-.858zM33.14 39.4c-.234-.182-.494-.286-.754-.286a.875.875 0 0 0-.676.312l-.546.598c-.182.208-.26.442-.26.676a.93.93 0 0 0 .286.65c1.612 1.508 3.172 2.158 4.888 2.158 3.458 0 6.266-2.262 6.266-6.188 0-3.588-2.496-5.798-5.72-5.798-.364 0-.754.052-1.04.104l.52-3.614h5.018c.52 0 .962-.442.962-.962v-1.066a.977.977 0 0 0-.962-.962H34.44c-.546 0-1.014.416-1.092.962l-.858 7.124c0 .078-.026.13-.026.208 0 .624.416 1.04 1.066 1.04.052 0 .13-.026.208-.026a9.916 9.916 0 0 1 1.534-.104c2.444 0 3.874 1.404 3.874 3.224 0 1.794-1.248 3.068-2.99 3.068-1.092 0-2.106-.39-3.016-1.118z" fill="#AF5844"/></svg>