<svg width="60" height="56" viewBox="0 0 60 56" fill="none" xmlns="http://www.w3.org/2000/svg"><path d="M7.688 16.17c.119.006.236.01.354.01 1.903-.024 3.71-.768 4.995-2.054H15v28.482c-2.326.438-3.996 2.313-4 4.488v.916h-1c-1.104 0-2 .82-2 1.831v3.663c0 1.012.896 1.832 2 1.832h39.998c1.105 0 2-.82 2-1.831v-3.664c0-1.011-.895-1.832-2-1.832h-1v-.915c-.003-2.175-1.673-4.05-4-4.488V14.126h1.959c1.367 1.372 3.327 2.12 5.354 2.045 2.17-.104 4.204-1.007 5.638-2.503 1.456-1.504 2.188-3.483 2.03-5.489-.338-4.577-4.343-7.71-9.98-7.79H9.984C4.365.468.359 3.601.02 8.182c-.158 1.994.565 3.963 2.006 5.465 1.442 1.502 3.481 2.41 5.66 2.523zm7.25-5.708h30.124c.088.633.279 1.25.565 1.832H14.372a6.073 6.073 0 0 0 .566-1.832zm35.06 43.045H10.001v-3.664h39.997v3.663zm-3-6.411v.916H13.002v-.916c0-1.518 1.343-2.748 3-2.748H44c1.657 0 3 1.23 3 2.748zM23 42.516h-2v-23.81c0-.506.448-.916 1-.916s1 .41 1 .916v23.812zm8 0h-2v-23.81c0-.506.447-.916 1-.916.552 0 1 .41 1 .916v23.812zm7.999 0h-2v-23.81c0-.506.448-.916 1-.916s1 .41 1 .916v23.812zm4 0h-2v-23.81c0-1.517-1.343-2.747-3-2.747s-3 1.23-3 2.747v23.812h-2V18.704c0-1.517-1.343-2.747-3-2.747-1.656 0-3 1.23-3 2.747v23.812h-2V18.704c0-1.517-1.342-2.747-2.999-2.747s-3 1.23-3 2.747v23.812h-2v-28.39h26v28.39zM34.68 2.22c-.705 1.053-2.554 1.832-4.68 1.832-2.127 0-3.976-.779-4.682-1.832h9.363zM2.016 8.307c.268-3.632 3.41-6.021 7.985-6.087h13.135c.632 2.115 3.42 3.663 6.864 3.663 3.443 0 6.231-1.548 6.863-3.663h13.12c4.591.066 7.732 2.455 7.999 6.087.12 1.516-.431 3.013-1.532 4.152-1.083 1.127-2.616 1.806-4.252 1.883-2.72.012-4.986-1.903-5.193-4.387-.07-.882.25-1.753.89-2.416.63-.656 1.52-1.052 2.472-1.099 1.508-.072 2.798.98 2.893 2.36.063.738-.385 1.434-1.12 1.74a.928.928 0 0 0-.602.747.887.887 0 0 0 .42.845c.296.19.683.22 1.01.075 1.486-.628 2.397-2.03 2.29-3.527-.18-2.375-2.403-4.182-5-4.065-2.503.114-4.604 1.767-5.106 4.016H14.847c-.5-2.25-2.602-3.902-5.105-4.016-2.6-.122-4.825 1.687-5 4.065-.11 1.498.8 2.902 2.288 3.532a1.08 1.08 0 0 0 1.01-.076.887.887 0 0 0 .419-.844.928.928 0 0 0-.601-.747c-.735-.307-1.183-1.002-1.121-1.74.1-1.378 1.387-2.43 2.893-2.361.951.046 1.842.443 2.47 1.099.641.662.963 1.533.893 2.416-.197 2.487-2.47 4.405-5.192 4.383-1.637-.078-3.17-.757-4.252-1.884-1.1-1.138-1.653-2.635-1.533-4.151z" fill="#AF5844"/></svg>