<svg width="160" height="42" viewBox="0 0 160 42" fill="none" xmlns="http://www.w3.org/2000/svg"><path d="M24.902 28.388v.448h-8.3v-.448c.942-.134 1.839-.448 2.018-1.567.18-.94-.09-2.015-.628-3.672l-1.346-4.12h-9.87c-1.302 3.673-2.2 6.36-2.02 7.479.135 1.432 1.39 1.88 2.378 1.88v.448H0v-.448c1.615-.045 2.692-.627 3.545-2.597.762-1.88 2.781-7.343 3.724-9.985C9.87 8.24 11.172 4.791 11.172 3c0-.627-.045-1.209-.18-1.746.719-.18 1.75-.672 2.424-1.075l7.268 22.075c1.167 3.492 1.57 5.955 4.218 6.134zm-8.39-9.806L11.666 4.12c-.584 2.598-2.244 7.165-3.814 11.777a91.65 91.65 0 0 1-.942 2.686h9.602zM47.067 8.463h-.494c-1.166-4.836-2.288-7.164-7.583-7.164h-1.615v24.134c0 2.194 1.257 2.91 2.288 2.955v.448h-7.537v-.448c1.121-.045 2.333-.716 2.333-3V1.298h-1.66c-5.295 0-6.506 2.329-7.583 7.165h-.449L26.472 0c.853.403 1.885.85 4.442.85H40.92c2.423 0 3.59-.447 4.442-.85l1.705 8.463zm24.408 13.074l-2.378 7.88c-.987-.357-1.705-.581-4.756-.581H50.925v-.448c1.391-.045 2.289-.806 2.289-2.91V4.119c0-2.104-.942-2.776-2.289-2.82V.85h12.519c3.454 0 4.98-.672 5.204-.851l2.199 7.254h-.494c-1.525-4.299-2.916-5.955-10.05-5.955h-4.218v11.238h5.25c2.827 0 3.679-1.03 3.769-3.09h.448v6.672h-.448c-.09-2.328-.942-3.09-3.77-3.09h-5.249v14.508c1.301.538 2.737.806 5.115.806 5.43 0 7.942-1.12 9.826-6.806h.45zm24.453-.761l-2.288 8.642c-1.032-.358-1.974-.582-4.621-.582H75.827v-.448c1.122-.045 2.289-.716 2.289-3V4.254c0-2.284-.943-2.91-2.289-2.956V.851h7.493v.447c-1.525.045-2.288.672-2.288 2.956v23.418c1.256.447 2.602.716 4.846.716 5.294 0 7.627-.672 9.646-7.567h.404v-.045zm3.904 7.612c1.121-.045 2.288-.672 2.288-3V4.164c0-2.284-.942-2.82-2.288-2.866V.851h7.403v.447c-1.481.045-2.288.582-2.288 2.866v21.269c0 2.283 1.256 2.91 2.288 2.955v.448h-7.448v-.448h.045zm33.83-6.851l-2.378 7.836c-.987-.358-1.705-.582-4.756-.582h-13.415v-.448c1.391-.044 2.288-.806 2.288-2.91V4.119c0-2.104-.942-2.776-2.288-2.82V.85h12.518c3.455 0 4.98-.672 5.205-.851l2.198 7.254h-.493c-1.526-4.299-2.917-5.955-10.051-5.955h-4.262v11.238h5.249c2.827 0 3.679-1.03 3.769-3.09h.449v6.672h-.449c-.09-2.328-.942-3.09-3.769-3.09h-5.249v14.508c1.301.538 2.737.806 5.115.806 5.429 0 7.941-1.12 9.826-6.806h.493zM160 28.388v.448h-2.782c-1.66 0-2.916-.896-4.307-2.956l-6.686-10.074h-3.095v9.492c0 2.194 1.032 3.045 2.288 3.09v.448h-7.448v-.448c1.256-.045 2.288-.896 2.288-3.09V4.254c0-2.284-.942-2.91-2.288-2.956V.851h9.467c6.012 0 10.409 2.91 10.409 7.835 0 4.747-4.128 7.12-8.614 7.12h-1.795v.269l2.378.402 5.833 8.598c1.884 2.686 2.826 3.313 4.352 3.313zm-16.87-13.299c.987.09 3.454.314 4.935.314 5.07 0 6.91-2.821 6.91-6.672 0-3.985-2.692-7.388-8.435-7.388h-3.41V15.09zM47.515 35.373h.898v5.687h3.814v.76H47.56v-6.447h-.045zm9.513 3.224c0-2.105 1.39-3.403 3.5-3.403 2.108 0 3.499 1.298 3.499 3.403 0 2.06-1.391 3.403-3.5 3.403s-3.5-1.343-3.5-3.403zm6.057 0c0-1.612-.987-2.642-2.558-2.642-1.57 0-2.557 1.03-2.557 2.642 0 1.612.987 2.642 2.557 2.642 1.57 0 2.558-1.03 2.558-2.642zm6.775-3.224h1.077l3.544 4.746a4 4 0 0 1 .404.717v-5.463h.808v6.448H74.66l-3.635-4.791a3.997 3.997 0 0 1-.403-.717v5.553h-.808v-6.493h.045zm12.338 0h2.782c2.02 0 3.41 1.209 3.41 3.18 0 1.97-1.39 3.268-3.41 3.268h-2.782v-6.448zm2.782 5.687c1.57 0 2.468-1.03 2.468-2.508 0-1.522-.987-2.418-2.512-2.418h-1.84v4.926h1.884zm8.795-2.463c0-2.105 1.39-3.403 3.5-3.403 2.108 0 3.499 1.298 3.499 3.403 0 2.06-1.39 3.403-3.5 3.403-2.064 0-3.5-1.343-3.5-3.403zm6.057 0c0-1.612-.987-2.642-2.558-2.642-1.57 0-2.557 1.03-2.557 2.642 0 1.612.987 2.642 2.557 2.642 1.57 0 2.558-1.03 2.558-2.642zm6.775-3.224h1.077l3.544 4.746c.18.269.314.493.404.717v-5.463h.808v6.448h-1.032l-3.635-4.791a3.976 3.976 0 0 1-.403-.717v5.553h-.808v-6.493h.045z" fill="#fff"/></svg>