<svg width="298" height="37" viewBox="0 0 298 37" fill="none" xmlns="http://www.w3.org/2000/svg"><path d="M30.616 35.705v.563H20.411v-.563c1.158-.17 2.262-.563 2.482-1.971.221-1.183-.11-2.535-.772-4.618l-1.655-5.181H8.33c-1.6 4.617-2.703 7.997-2.483 9.404.166 1.803 1.71 2.366 2.924 2.366v.563H0v-.563c1.986-.057 3.31-.789 4.358-3.267.938-2.365 3.42-9.236 4.579-12.558 3.2-9.518 4.799-13.854 4.799-16.107 0-.788-.055-1.52-.22-2.196.882-.225 2.15-.845 2.978-1.352l8.937 27.764c1.434 4.393 1.93 7.49 5.185 7.716zM20.301 23.37L14.343 5.18c-.717 3.266-2.758 9.01-4.69 14.811a116.286 116.286 0 0 1-1.158 3.38h11.806zm37.567-12.726h-.607c-1.434-6.082-2.814-9.01-9.323-9.01h-1.986v30.354c0 2.76 1.545 3.66 2.814 3.717v.563h-9.268v-.563c1.379-.057 2.869-.901 2.869-3.773V1.633h-2.042c-6.51 0-7.998 2.929-9.323 9.01h-.551L32.547 0c1.048.507 2.317 1.07 5.461 1.07H50.31c2.98 0 4.413-.563 5.462-1.07l2.096 10.644zm30.009 16.444L84.954 37c-1.214-.45-2.096-.732-5.848-.732H62.612v-.563c1.71-.057 2.813-1.014 2.813-3.66V5.18c0-2.647-1.158-3.492-2.813-3.548V1.07h15.391c4.248 0 6.123-.845 6.4-1.07l2.702 9.123h-.607c-1.875-5.406-3.585-7.49-12.357-7.49h-5.185V15.77h6.454c3.476 0 4.524-1.296 4.634-3.886h.552v8.391h-.552c-.11-2.928-1.158-3.886-4.634-3.886h-6.454v18.247c1.6.675 3.365 1.013 6.289 1.013 6.675 0 9.764-1.408 12.08-8.56h.552zm30.065-.958L115.129 37c-1.269-.45-2.427-.732-5.682-.732H93.228v-.563c1.38-.057 2.814-.901 2.814-3.773V5.35c0-2.872-1.159-3.66-2.814-3.717V1.07h9.213v.563c-1.876.056-2.814.845-2.814 3.717v29.454c1.545.563 3.2.9 5.958.9 6.51 0 9.378-.844 11.861-9.517h.496v-.056zm4.8 9.575c1.379-.057 2.813-.845 2.813-3.773V5.236c0-2.872-1.158-3.548-2.813-3.604V1.07h9.102v.563c-1.821.056-2.814.732-2.814 3.604v26.75c0 2.873 1.545 3.661 2.814 3.718v.563h-9.158v-.563h.056zm41.594-8.617l-2.924 9.856c-1.214-.45-2.096-.732-5.847-.732H139.07v-.564c1.71-.056 2.814-1.013 2.814-3.66V5.18c0-2.647-1.159-3.492-2.814-3.548V1.07h15.391c4.248 0 6.124-.845 6.399-1.07l2.703 9.123h-.606c-1.876-5.406-3.586-7.49-12.357-7.49h-5.241V15.77h6.454c3.476 0 4.524-1.296 4.634-3.886h.552v8.391h-.552c-.11-2.928-1.158-3.886-4.634-3.886h-6.454v18.247c1.6.675 3.365 1.013 6.289 1.013 6.675 0 9.764-1.408 12.081-8.56h.607zm32.381 8.617v.563h-3.42c-2.041 0-3.585-1.127-5.296-3.717l-8.219-12.671h-3.806v11.939c0 2.76 1.268 3.83 2.813 3.886v.563h-9.157v-.563c1.544-.057 2.813-1.127 2.813-3.886V5.35c0-2.872-1.158-3.66-2.813-3.717V1.07h11.639c7.392 0 12.799 3.66 12.799 9.855 0 5.97-5.076 8.955-10.592 8.955h-2.207v.338l2.924.506 7.172 10.813c2.316 3.38 3.475 4.168 5.35 4.168zm-20.741-16.726c1.213.112 4.247.394 6.068.394 6.233 0 8.495-3.548 8.495-8.391 0-5.012-3.31-9.293-10.371-9.293h-4.192v17.29zm42.09-4.055h1.104v7.152h4.689v.957h-5.737v-8.11h-.056zm11.751 4.055c0-2.647 1.71-4.28 4.302-4.28 2.593 0 4.303 1.633 4.303 4.28 0 2.59-1.71 4.28-4.303 4.28-2.592 0-4.302-1.69-4.302-4.28zm7.392 0c0-2.028-1.214-3.323-3.145-3.323s-3.144 1.295-3.144 3.323c0 2.027 1.213 3.322 3.144 3.322s3.145-1.295 3.145-3.322zm8.385-4.055h1.324l4.358 5.97c.22.337.386.619.496.9v-6.87h.993v8.11h-1.214l-4.468-6.026c-.221-.338-.386-.62-.496-.901v6.983h-.993v-8.166zm15.17 0h3.42c2.483 0 4.193 1.52 4.193 3.998s-1.71 4.111-4.193 4.111h-3.42v-8.11zm3.365 7.152c1.931 0 3.034-1.295 3.034-3.154 0-1.914-1.214-3.04-3.089-3.04h-2.262v6.194h2.317zm10.867-3.097c0-2.647 1.71-4.28 4.303-4.28s4.303 1.633 4.303 4.28c0 2.59-1.71 4.28-4.303 4.28s-4.303-1.69-4.303-4.28zm7.392 0c0-2.028-1.213-3.323-3.144-3.323s-3.144 1.295-3.144 3.323c0 2.027 1.213 3.322 3.144 3.322s3.144-1.295 3.144-3.322zm8.385-4.055h1.324l4.358 5.97c.221.337.387.619.497.9v-6.87h.993v8.11h-1.269l-4.468-6.026c-.221-.338-.386-.62-.497-.901v6.983h-.993v-8.166h.055z" fill="#0F0F0F"/></svg>