<svg width="110" height="29" viewBox="0 0 110 29" fill="none" xmlns="http://www.w3.org/2000/svg"><path d="M17.12 19.601v.31h-5.707v-.31c.648-.092 1.265-.309 1.389-1.082.123-.649-.062-1.391-.432-2.535l-.926-2.844H4.658c-.895 2.535-1.512 4.39-1.388 5.163.092.99.956 1.298 1.635 1.298v.31H0v-.31c1.11-.03 1.85-.432 2.437-1.793.524-1.298 1.912-5.07 2.56-6.894 1.79-5.225 2.684-7.606 2.684-8.843 0-.432-.031-.834-.124-1.205C8.051.742 8.761.402 9.223.124l4.997 15.242c.802 2.411 1.08 4.112 2.9 4.235zm-5.768-6.77L8.02 2.844c-.4 1.794-1.542 4.947-2.622 8.132a62.825 62.825 0 0 1-.648 1.854h6.602zm21.006-6.988h-.339C31.217 2.504 30.446.897 26.806.897h-1.11V17.56c0 1.515.863 2.01 1.573 2.04v.31h-5.183v-.31c.772-.03 1.604-.494 1.604-2.071V.897h-1.14c-3.64 0-4.474 1.607-5.214 4.946h-.308L18.2 0c.586.278 1.295.587 3.053.587h6.88C29.797.587 30.6.278 31.185 0l1.172 5.843zm16.782 9.028l-1.636 5.441c-.678-.247-1.172-.402-3.27-.402h-9.223v-.309c.956-.03 1.573-.556 1.573-2.01V2.845c0-1.453-.647-1.916-1.573-1.947v-.31h8.606c2.376 0 3.425-.463 3.579-.587l1.511 5.009h-.34C47.32 2.04 46.364.897 41.459.897h-2.9v7.76h3.61c1.943 0 2.53-.711 2.59-2.134h.31v4.607h-.31c-.06-1.608-.647-2.133-2.59-2.133h-3.61v10.017c.895.37 1.882.556 3.517.556 3.733 0 5.46-.773 6.756-4.699h.308zm16.81-.526l-1.573 5.967c-.709-.247-1.357-.402-3.177-.402h-9.069v-.309c.771-.03 1.573-.494 1.573-2.071V2.937c0-1.577-.647-2.01-1.573-2.04v-.31h5.152v.31c-1.05.03-1.574.463-1.574 2.04v16.17c.864.309 1.79.494 3.332.494 3.64 0 5.244-.463 6.632-5.225h.278v-.03zm2.684 5.256c.772-.03 1.574-.463 1.574-2.071V2.875c0-1.576-.648-1.947-1.574-1.978v-.31h5.09v.31c-1.018.03-1.573.402-1.573 1.978v14.686c0 1.577.864 2.01 1.573 2.04v.31h-5.12v-.31h.03zm23.259-4.73l-1.635 5.41c-.679-.247-1.172-.401-3.27-.401h-9.223v-.31c.956-.03 1.573-.556 1.573-2.01V2.845c0-1.453-.648-1.916-1.573-1.947v-.31h8.606c2.376 0 3.424-.463 3.579-.587l1.511 5.009h-.34C90.074 2.04 89.118.897 84.213.897h-2.93v7.76h3.609c1.943 0 2.53-.711 2.59-2.134h.31v4.607h-.31c-.06-1.608-.647-2.133-2.59-2.133h-3.61v10.017c.895.37 1.882.556 3.517.556 3.733 0 5.46-.773 6.756-4.699h.339zM110 19.601v.31h-1.913c-1.141 0-2.005-.619-2.961-2.041l-4.596-6.956h-2.129v6.554c0 1.515.71 2.102 1.574 2.133v.31h-5.12v-.31c.863-.03 1.572-.618 1.572-2.133V2.938c0-1.578-.648-2.01-1.573-2.041v-.31h6.509c4.133 0 7.156 2.01 7.156 5.41 0 3.278-2.838 4.917-5.922 4.917h-1.234v.185l1.635.278 4.01 5.937c1.295 1.855 1.943 2.287 2.992 2.287zM98.401 10.42c.68.062 2.376.216 3.394.216 3.485 0 4.75-1.947 4.75-4.606 0-2.752-1.851-5.101-5.799-5.101h-2.344v9.491zM32.667 24.424h.617v3.927h2.622v.525h-3.208v-4.452h-.031zm6.539 2.226c0-1.453.957-2.35 2.406-2.35 1.45 0 2.407.897 2.407 2.35 0 1.423-.957 2.35-2.407 2.35-1.45 0-2.406-.927-2.406-2.35zm4.165 0c0-1.113-.679-1.824-1.759-1.824-1.08 0-1.758.711-1.758 1.824s.679 1.824 1.758 1.824c1.08 0 1.759-.71 1.759-1.824zm4.658-2.226h.74l2.437 3.277c.123.186.216.34.277.495v-3.772h.556v4.452h-.71l-2.498-3.308a2.765 2.765 0 0 1-.278-.494v3.833h-.555v-4.483h.03zm8.482 0h1.913c1.388 0 2.344.835 2.344 2.195 0 1.36-.956 2.257-2.344 2.257h-1.913v-4.452zm1.913 3.927c1.08 0 1.697-.711 1.697-1.732 0-1.05-.68-1.67-1.728-1.67h-1.265v3.402h1.296zm6.046-1.701c0-1.453.956-2.35 2.406-2.35 1.45 0 2.406.897 2.406 2.35 0 1.423-.956 2.35-2.406 2.35-1.419 0-2.406-.927-2.406-2.35zm4.164 0c0-1.113-.678-1.824-1.758-1.824s-1.758.711-1.758 1.824.678 1.824 1.758 1.824 1.758-.71 1.758-1.824zm4.658-2.226h.74l2.437 3.277c.124.186.216.34.278.495v-3.772h.555v4.452h-.71l-2.498-3.308a2.764 2.764 0 0 1-.277-.494v3.833h-.556v-4.483h.031z" fill="#000"/></svg>