<svg width="51" height="53" viewBox="0 0 51 53" fill="none" xmlns="http://www.w3.org/2000/svg"><path d="M37.22.242H13.872C6.274.242.092 6.582.092 14.375V38.32c0 7.792 6.182 14.132 13.78 14.132h23.349c7.598 0 13.78-6.34 13.78-14.132V14.375C51 6.582 44.819.242 37.22.242zM48.016 38.32c0 6.105-4.843 11.071-10.796 11.071H13.872c-5.953 0-10.796-4.966-10.796-11.071V14.375c0-6.105 4.843-11.072 10.796-11.072h23.349c5.952 0 10.795 4.967 10.795 11.072V38.32z" fill="#AF5844"/><path d="M25.55 12.071c-7.676 0-13.92 6.404-13.92 14.275S17.874 40.62 25.55 40.62s13.92-6.403 13.92-14.274c0-7.871-6.244-14.275-13.92-14.275zm0 25.489c-6.03 0-10.936-5.03-10.936-11.214 0-6.183 4.906-11.214 10.936-11.214s10.936 5.03 10.936 11.214c0 6.183-4.906 11.214-10.936 11.214zM39.797 7.002c-2.268 0-4.113 1.892-4.113 4.218 0 2.327 1.845 4.22 4.113 4.22 2.268 0 4.113-1.893 4.113-4.22 0-2.326-1.845-4.218-4.113-4.218zm0 5.376c-.622 0-1.129-.52-1.129-1.158 0-.638.507-1.157 1.129-1.157s1.129.519 1.129 1.157-.507 1.158-1.13 1.158z" fill="#AF5844"/></svg>