<svg width="28" height="28" viewBox="0 0 28 28" fill="none" xmlns="http://www.w3.org/2000/svg"><path d="M4.102 28h9.132v-9.953h-3.28v-3.281h3.28v-4.102a4.106 4.106 0 0 1 4.102-4.101h4.102v3.28h-3.282c-.904 0-1.64.737-1.64 1.641v3.282h4.774l-.547 3.28h-4.227V28h7.382A4.106 4.106 0 0 0 28 23.898V4.102A4.106 4.106 0 0 0 23.898 0H4.102A4.106 4.106 0 0 0 0 4.102v19.796A4.106 4.106 0 0 0 4.102 28zM1.64 4.102A2.464 2.464 0 0 1 4.1 1.64h19.797A2.464 2.464 0 0 1 26.36 4.1v19.797a2.464 2.464 0 0 1-2.46 2.461h-5.743v-6.672h3.976l1.094-6.562h-5.07v-1.64h4.922V4.921h-5.742a5.749 5.749 0 0 0-5.742 5.742v2.461H8.313v6.563h3.28v6.671h-7.49A2.464 2.464 0 0 1 1.64 23.9V4.101z" fill="#fff"/></svg>