<svg width="29" height="28" viewBox="0 0 29 28" fill="none" xmlns="http://www.w3.org/2000/svg"><g clip-path="url(#a)" fill="#fff"><path d="M7.672 26.002a13.898 13.898 0 0 0 7.179 1.988c7.7 0 14.05-6.284 14.05-13.995C28.9 6.293 22.56 0 14.85 0 7.164 0 .91 6.278.91 13.995c0 2.575.686 5.068 1.987 7.233L.9 28l6.772-1.998zM2.55 13.995c0-6.813 5.518-12.355 12.3-12.355 6.843 0 12.41 5.542 12.41 12.355 0 6.813-5.567 12.355-12.41 12.355-2.354 0-4.642-.667-6.616-1.93l-.315-.2-4.593 1.355L4.68 20.98l-.202-.315a12.353 12.353 0 0 1-1.929-6.671z"/><path d="M7.716 11.416c.27 1.423 1.075 4.16 3.416 6.5 2.34 2.341 5.077 3.146 6.5 3.416 1.629.31 4.02.357 5.188-.81l.651-.652a1.73 1.73 0 0 0 .51-1.231 1.73 1.73 0 0 0-.51-1.231l-2.605-2.605a1.73 1.73 0 0 0-1.23-.51 1.73 1.73 0 0 0-1.232.51l-.65.651c-.399.398-1.15.4-1.55.005l-2.598-2.707-.012-.012a1.023 1.023 0 0 1 0-1.445l.65-.651a1.74 1.74 0 0 0 0-2.462L11.64 5.577a1.743 1.743 0 0 0-2.462 0l-.65.651c-.933.933-1.244 2.92-.812 5.188zm1.97-4.028c.684-.668.648-.68.723-.68a.1.1 0 0 1 .072.029c2.744 2.759 2.634 2.597 2.634 2.676 0 .027-.01.052-.03.071l-.65.651a2.66 2.66 0 0 0-.007 3.758l2.6 2.709.011.012c1.037 1.037 2.833 1.04 3.874 0l.651-.651a.1.1 0 0 1 .143 0c2.744 2.759 2.634 2.597 2.634 2.676 0 .028-.01.052-.03.071l-.65.651c-.447.447-1.869.714-3.723.36-1.237-.235-3.616-.934-5.646-2.964s-2.73-4.41-2.965-5.647c-.353-1.854-.086-3.276.36-3.722z"/></g><defs><clipPath id="a"><path fill="#fff" transform="translate(.9)" d="M0 0h28v28H0z"/></clipPath></defs></svg>