<svg width="52" height="52" viewBox="0 0 52 52" fill="none" xmlns="http://www.w3.org/2000/svg"><g clip-path="url(#a)" fill="#AF5844"><path d="M12.95 47.519a25.269 25.269 0 0 0 13.052 3.614c14.003 0 25.545-11.426 25.545-25.445C51.547 11.685 40.02.242 26.002.242 12.026.242.656 11.657.656 25.688c0 4.682 1.248 9.214 3.614 13.15L.638 51.151 12.95 47.52zM3.639 25.688c0-12.387 10.033-22.464 22.364-22.464 12.441 0 22.563 10.077 22.563 22.464 0 12.386-10.122 22.463-22.563 22.463a22.286 22.286 0 0 1-12.03-3.507l-.573-.366-8.351 2.464 2.464-8.352-.367-.573c-2.294-3.59-3.507-7.783-3.507-12.13z"/><path d="M13.029 21c.492 2.586 1.954 7.56 6.21 11.817 4.257 4.256 9.232 5.719 11.819 6.211 2.962.564 7.309.65 9.433-1.475l1.184-1.184a3.145 3.145 0 0 0 .927-2.239c0-.845-.33-1.64-.927-2.238l-4.736-4.735a3.144 3.144 0 0 0-2.238-.927c-.846 0-1.64.328-2.239.927l-1.184 1.183c-.723.724-2.088.727-2.817.01l-4.723-4.922a1.86 1.86 0 0 1-.021-2.65l1.183-1.184a3.163 3.163 0 0 0 0-4.476l-4.736-4.736a3.17 3.17 0 0 0-4.476 0l-1.184 1.184c-1.695 1.695-2.26 5.31-1.475 9.433zm3.584-7.325c1.242-1.215 1.176-1.238 1.313-1.238.047 0 .094.018.13.054 4.99 5.017 4.79 4.722 4.79 4.865a.18.18 0 0 1-.054.13l-1.184 1.184a4.837 4.837 0 0 0-.012 6.832l4.726 4.925.022.022c1.886 1.885 5.152 1.892 7.043 0l1.184-1.184a.184.184 0 0 1 .26 0c4.99 5.017 4.79 4.722 4.79 4.866 0 .05-.019.094-.054.13l-1.185 1.183c-.811.812-3.395 1.297-6.766.655-2.25-.428-6.576-1.699-10.267-5.39-3.692-3.692-4.962-8.018-5.39-10.267-.643-3.371-.158-5.956.654-6.767z"/></g><defs><clipPath id="a"><path fill="#fff" transform="translate(.638 .242)" d="M0 0h50.909v50.909H0z"/></clipPath></defs></svg>