<svg width="28" height="29" viewBox="0 0 28 29" fill="none" xmlns="http://www.w3.org/2000/svg"><path d="M20.42 0H7.58C3.4 0 0 3.487 0 7.773v13.17c0 4.285 3.4 7.772 7.58 7.772h12.84c4.18 0 7.58-3.487 7.58-7.772V7.773C28 3.487 24.6 0 20.42 0zm5.938 20.943c0 3.357-2.663 6.089-5.938 6.089H7.58c-3.275 0-5.939-2.732-5.939-6.09V7.774c0-3.358 2.664-6.09 5.938-6.09h12.842c3.274 0 5.937 2.732 5.937 6.09v13.17z" fill="#fff"/><path d="M14 6.506c-4.221 0-7.656 3.522-7.656 7.85 0 4.33 3.435 7.852 7.656 7.852 4.222 0 7.656-3.522 7.656-7.851 0-4.33-3.434-7.851-7.656-7.851zm0 14.019c-3.316 0-6.014-2.767-6.014-6.168 0-3.4 2.698-6.168 6.014-6.168 3.317 0 6.015 2.767 6.015 6.168 0 3.4-2.698 6.168-6.015 6.168zm7.838-16.807c-1.247 0-2.262 1.04-2.262 2.32 0 1.28 1.015 2.32 2.262 2.32 1.248 0 2.263-1.04 2.263-2.32 0-1.28-1.015-2.32-2.263-2.32zm0 2.957a.63.63 0 0 1-.62-.637.63.63 0 0 1 .62-.637.63.63 0 0 1 .621.637.63.63 0 0 1-.62.637z" fill="#fff"/></svg>