<svg width="52" height="52" viewBox="0 0 52 52" fill="none" xmlns="http://www.w3.org/2000/svg"><g clip-path="url(#a)"><path d="M7.913 51.151H24.52V33.055h-5.966v-5.966h5.966v-7.457c0-4.112 3.345-7.458 7.457-7.458h7.457v5.966h-5.966a2.986 2.986 0 0 0-2.982 2.983v5.966h8.68l-.995 5.966h-7.686V51.15h13.424c4.112 0 7.457-3.345 7.457-7.457V7.7c0-4.112-3.345-7.458-7.457-7.458H7.913C3.801.242.456 3.588.456 7.7v35.994c0 4.112 3.345 7.457 7.457 7.457zM3.44 7.7a4.48 4.48 0 0 1 4.474-4.475h35.995A4.48 4.48 0 0 1 48.382 7.7v35.994a4.48 4.48 0 0 1-4.474 4.475h-10.44V36.038h7.229l1.988-11.932h-9.218v-2.983h8.95V9.191H31.975c-5.757 0-10.44 4.684-10.44 10.44v4.475H15.57v11.932h5.966v12.13H7.913a4.48 4.48 0 0 1-4.474-4.474V7.7z" fill="#AF5844"/></g><defs><clipPath id="a"><path fill="#fff" transform="translate(.456 .242)" d="M0 0h50.909v50.909H0z"/></clipPath></defs></svg>